# xmcd
#
# Track frame offsets: 
#        150
#        16398
#        29196
#        45744
#        60942
#        75690
#        93138
#        109611
#        121209
#        142107
#        154080
#        169203
#
# Disc length: 2542 seconds
#
# Revision: 4
# Processed by: cddbd v1.5.1PL2 Copyright (c) Steve Scherf et al.
# Submitted via: ExactAudioCopy v0.95a5
#
DISCID=9709ec0c
DTITLE=Les Cowboys Fringants - 12 Grandes Chansons
DYEAR=1997
DGENRE=Country
TTITLE0=Les Routes du Bonheur
TTITLE1=Awikachikaën
TTITLE2=Évangéline
TTITLE3=Cass de Pouëlle
TTITLE4=L'Agacepésie
TTITLE5=Dieudonné Rastapopoulos
TTITLE6=Plattsburgh
TTITLE7=Willie Jos Hachey
TTITLE8=Gaétane
TTITLE9=Repentigny-by-the-Sea
TTITLE10=Le Hurlot
TTITLE11=Impala Blues
EXTD=YEAR: 1997
EXTT0=
EXTT1=
EXTT2=
EXTT3=
EXTT4=
EXTT5=
EXTT6=
EXTT7=
EXTT8=
EXTT9=
EXTT10=
EXTT11=
PLAYORDER=
